<?xml version="1.0" encoding="utf-8"?>
<!-- Generator: Adobe Illustrator 26.0.3, SVG Export Plug-In . SVG Version: 6.00 Build 0)  -->
<svg version="1.0"
	 id="svg5" inkscape:version="1.1.2 (b8e25be8, 2022-02-05)" sodipodi:docname="karate-labs-logo.svg" xmlns:inkscape="http://www.inkscape.org/namespaces/inkscape" xmlns:sodipodi="http://sodipodi.sourceforge.net/DTD/sodipodi-0.dtd" xmlns:svg="http://www.w3.org/2000/svg"
	 xmlns="http://www.w3.org/2000/svg" xmlns:xlink="http://www.w3.org/1999/xlink" x="0px" y="0px" viewBox="0 0 596 464"
	 style="enable-background:new 0 0 596 464;" xml:space="preserve">
<style type="text/css">
	.st0{fill-rule:evenodd;clip-rule:evenodd;fill:#FFFFFF;}
</style>
<g id="layer1" inkscape:groupmode="layer" inkscape:label="Layer 1">
	<g id="g832" transform="matrix(0.77074379,0,0,0.77074379,77.579893,-27.625745)">
		<circle id="path727" inkscape:label="circle" cx="286" cy="300.5" r="194.6">
		</circle>
		<g id="g88" transform="matrix(0.77661746,0,0,0.77661746,22.093596,108.22785)">
			<g id="svgg">
				
					<path id="path0" inkscape:label="person" sodipodi:nodetypes="ccccscccccccscsccsccsccccccccscccccccccccccccccccccsccccccsscccccccccsccccccccccccccccsccccccccsccccccsccccccccscccccccccccccccccccccccsccccccccccccccc" class="st0" d="
					M362.1,60.6c6.1,1.2,6.5,1.9,4,7.4c-2.5,5.4-2.4,4.2-2.5,23.7c-0.1,16.4-0.4,22.6-1.3,23.5c-0.1,0.1-1.9,0.6-4,1.2
					c-6.9,1.8-6.8,1.6-7.6,9.7c-0.4,3.5-0.6,6.4-0.6,6.4c0,0,7.2,1.5,15.8,3.4l15.8,3.3l8.6,4.8l8.6,4.8L405,159
					c3.5,5.7,6.3,10.3,6.4,10.3c0.1,0,5-1.9,10.9-4.1c5.9-2.3,10.8-4.1,10.9-4c0.2,0.2,5.3,35.4,5.2,35.5
					c-0.7,0.6-35.4,10.9-36.2,10.7c-0.6-0.1-6.8-2-13.8-4.1c-7-2.2-12.8-3.9-12.9-3.8c-0.1,0.1-0.4,7.3-0.8,16
					c-0.4,8.8-0.7,16-0.7,16c0,0-2.9,2.4-6.4,5.3l-6.3,5.2l-4.9-0.2c-2.7-0.1-15.5-0.3-28.3-0.5l-23.4-0.4l-7.6-4.7
					c-4.2-2.6-8.6-5.3-9.9-6.1c-2.8-1.7-2.8-0.8,0.3-7.6c1.4-3.1,2.6-5.9,2.6-6.1c0-0.3,10.2-4,27.7-10.1
					c16.1-5.6,27.3-9.7,26.8-9.7c-2.3-0.2-54.6-1.5-57.4-1.4c-5.3,0.1-17.2-5.8-23.1-11.5c-0.7-0.6-1.7-32.9-1.1-33.4
					c8.2-7.5,13.3-11.2,22.2-16l9-4.9l12.4,0.5c10.8,0.4,12.5,0.4,13.4,0c0.5-0.3,6.6-2.8,13.4-5.6l12.4-5.1l-11.8-0.8
					c-6.5-0.4-12-0.8-12.3-0.8c-0.8,0-8.3-10.4-8.6-12c-0.1-0.7-1.1-6.7-2.1-13.3l-1.8-12.1l5.3-9c4.1-7,5.5-9,6-9
					c0.4,0,7.4-0.5,15.5-1.2C351.7,59.7,357.2,59.6,362.1,60.6 M466.9,136.2c3.7,0.4,6.1,1,7.3,2c0.7,0.6,1.1,4.5,1.9,19.3l0.1,1.5
					l-15.8,6.7c-8.7,3.7-16.1,6.8-16.4,6.9c-0.7,0.2-9.2-11.8-8.7-12.2c0.2-0.2,2.6-1.2,5.5-2.2c2.8-1.1,5.2-2,5.3-2.1
					c0.1-0.1,0-3-0.2-6.4c-0.2-3.5-0.3-6.5-0.2-6.7c0.1-0.2,1.5-1.9,3.1-3.9l2.9-3.5l5.9,0.2C460.8,135.8,465,136,466.9,136.2
					 M452.4,148.5c0.1,0.9,0.4,3.8,0.6,6.5c0.2,2.7,0.5,4.9,0.5,5c0.1,0.2,13.2-3.5,13.2-3.8c0-0.2-13.9-9.3-14.3-9.3
					C452.3,146.9,452.2,147.6,452.4,148.5 M361.2,176.2c-3.4,6.5-7.1,13.6-8.2,15.7l-2.1,3.9l6.7-5.2l6.7-5.2l0.2-2.3
					c0.1-1.3,0.8-5.6,1.6-9.5C368.3,162.5,368.3,162.5,361.2,176.2 M285.7,253.6c4.4,1.3,11.6,3.3,16,4.4c4.5,1.1,8.3,2.1,8.5,2.2
					c0.3,0.1-0.6,1.5-2.6,3.7l-3,3.5l-3.5,8.8l-3.5,8.8l10.7-0.2c5.9-0.1,10.8-0.3,10.8-0.3c0,0,0.4-3.4,0.8-7.4
					c0.7-6.7,0.8-7.5,1.5-8.1c0.4-0.4,3.3-2.5,6.3-4.7l5.6-4.1l5.8,4.1l5.8,4.1l0.6,7.8c0.3,4.3,0.6,7.8,0.7,7.8c0,0,4.3,0,9.4-0.1
					l9.3-0.1l-5.6-11.6c-3.1-6.4-5.6-11.7-5.5-11.7c0.1-0.1,3.7-0.5,8.1-0.9c7.5-0.8,8.4-0.9,13.8-2.6c3.2-1,6-1.7,6.2-1.7
					c0.3,0,6.9,7.3,14.7,16.3c17.3,19.8,17.5,19.9,29.3,30.9c21.3,19.9,24.2,23.7,27.3,35.2c2,7.5,2.9,9.6,10.2,25.1
					c3.8,8.1,7.3,16.1,8.6,19.8c1.3,3.6,1.6,2.9-3.5,5.9c-1.8,1.1-3.4,2.1-3.4,2.4c0,1.3,4.5,3.2,19.3,8
					c19.2,6.2,22.4,8.6,17.9,13.1c-3.2,3.3-5.5,3.6-24,3.6c-19,0-24.1-0.6-26.3-2.8c-1.5-1.6-2-0.5,5.8-12.2
					c3.8-5.7,6.9-10.4,6.8-10.5c-0.1-0.1-6.4,0.5-14.1,1.2l-13.9,1.3l-10.7-0.9c-5.9-0.5-10.8-1-11-1.2c-0.2-0.1-6.8-13.4-14.6-29.5
					L386.3,332l-21.5-13.7l-21.5-13.7l-9,0.2c-4.9,0.1-10.2,0.3-11.7,0.4l-2.7,0.2l-18,19.8l-18,19.8l-22.4,21.5L239,388.2l-6.7,0.9
					l-6.7,0.9l-14-2c-7.7-1.1-14-1.9-14.1-1.9c-0.1,0.1,3.2,4.6,7.3,10.1s7.3,10.1,7.3,10.3c-0.1,0.2-1.3,2.2-2.7,4.4l-2.6,4
					l-13.6,0c-20.7,0-21.1-0.2-18.1-7.5c1.4-3.5,1.9-4,7.4-8.2c9.5-7.3,12.9-10.2,13.8-11.8c0.3-0.5-0.4-1.2-3.9-4.1
					c-2.3-1.9-4.2-3.8-4.2-4.1c0.1-1.7,47.3-66.2,55.5-75.7c4.5-5.3,12.2-14.7,17-21l8.8-11.4l3.2-8c1.7-4.4,3.4-8.8,3.7-9.8
					C277.1,250.8,276.2,250.8,285.7,253.6"/>
			</g>
		</g>
	</g>
	<g id="text627" transform="matrix(1.2321368,0,0,1.2321368,19.635195,-194.81707)" inkscape:label="text627">
		<path id="path1211" d="M112.3,465.1v28.6h6.3v-9.2l3.6-3.6l8.6,12.8h7.9l-12.2-17.3l11.2-11.3h-7.8L118.6,477v-11.8L112.3,465.1z"
			/>
		<path id="path1213" d="M140.4,479.4c0.1-1.3,0.4-2.4,1-3.3c0.6-0.9,1.3-1.6,2.2-2.1s1.9-0.9,3-1.1c1.1-0.2,2.3-0.4,3.4-0.4
			c1,0,2.1,0.1,3.2,0.2c1.1,0.1,2,0.4,2.9,0.8c0.9,0.4,1.6,1,2.2,1.8c0.6,0.7,0.8,1.7,0.8,3v10.8c0,0.9,0.1,1.8,0.2,2.7
			c0.1,0.9,0.3,1.5,0.6,1.9h-5.8c-0.1-0.3-0.2-0.6-0.3-1c-0.1-0.3-0.1-0.7-0.1-1c-0.9,0.9-2,1.6-3.2,2c-1.2,0.4-2.5,0.6-3.8,0.6
			c-1,0-1.9-0.1-2.8-0.4s-1.6-0.6-2.2-1.1c-0.6-0.5-1.1-1.1-1.5-1.9c-0.3-0.8-0.5-1.7-0.5-2.8c0-1.2,0.2-2.1,0.6-2.9
			c0.4-0.8,1-1.4,1.6-1.8c0.7-0.5,1.4-0.8,2.2-1c0.9-0.2,1.7-0.4,2.6-0.6c0.9-0.1,1.7-0.2,2.5-0.3c0.8-0.1,1.6-0.2,2.2-0.4
			c0.6-0.2,1.1-0.4,1.5-0.7c0.4-0.3,0.5-0.8,0.5-1.4c0-0.6-0.1-1.1-0.3-1.4c-0.2-0.4-0.5-0.7-0.8-0.8c-0.3-0.2-0.7-0.3-1.2-0.4
			c-0.4-0.1-0.9-0.1-1.4-0.1c-1.1,0-2,0.2-2.6,0.7s-1,1.3-1.1,2.4L140.4,479.4z M153.5,483.6c-0.2,0.2-0.5,0.4-0.9,0.5
			c-0.3,0.1-0.7,0.2-1.2,0.3c-0.4,0.1-0.8,0.1-1.3,0.2c-0.5,0.1-0.9,0.1-1.4,0.2c-0.4,0.1-0.9,0.2-1.3,0.3c-0.4,0.1-0.8,0.3-1.1,0.6
			c-0.3,0.2-0.5,0.5-0.7,0.8c-0.2,0.3-0.3,0.8-0.3,1.3c0,0.5,0.1,0.9,0.3,1.3c0.2,0.3,0.4,0.6,0.8,0.8c0.3,0.2,0.7,0.3,1.1,0.4
			s0.9,0.1,1.3,0.1c1.1,0,2-0.2,2.6-0.6c0.6-0.4,1.1-0.8,1.4-1.3c0.3-0.5,0.5-1.1,0.5-1.6c0.1-0.5,0.1-1,0.1-1.3V483.6z"/>
		<path id="path1215" d="M163.6,473v20.7h5.7v-9.3c0-0.9,0.1-1.8,0.3-2.6c0.2-0.8,0.5-1.5,0.9-2.1c0.5-0.6,1-1.1,1.8-1.4
			c0.7-0.3,1.6-0.5,2.6-0.5c0.3,0,0.7,0,1.1,0.1c0.4,0,0.7,0.1,1,0.1v-5.3c-0.5-0.1-0.9-0.2-1.2-0.2c-0.7,0-1.4,0.1-2.1,0.3
			c-0.7,0.2-1.3,0.5-1.9,0.9c-0.6,0.4-1.1,0.8-1.6,1.4c-0.5,0.5-0.8,1.1-1.1,1.8H169V473H163.6z"/>
		<path id="path1217" d="M178.9,479.4c0.1-1.3,0.4-2.4,1-3.3c0.6-0.9,1.3-1.6,2.2-2.1c0.9-0.5,1.9-0.9,3-1.1
			c1.1-0.2,2.3-0.4,3.4-0.4c1,0,2.1,0.1,3.2,0.2c1.1,0.1,2,0.4,2.9,0.8c0.9,0.4,1.6,1,2.2,1.8c0.6,0.7,0.8,1.7,0.8,3v10.8
			c0,0.9,0.1,1.8,0.2,2.7s0.3,1.5,0.6,1.9h-5.8c-0.1-0.3-0.2-0.6-0.3-1c-0.1-0.3-0.1-0.7-0.1-1c-0.9,0.9-2,1.6-3.2,2
			c-1.2,0.4-2.5,0.6-3.8,0.6c-1,0-1.9-0.1-2.8-0.4s-1.6-0.6-2.2-1.1c-0.6-0.5-1.1-1.1-1.5-1.9c-0.3-0.8-0.5-1.7-0.5-2.8
			c0-1.2,0.2-2.1,0.6-2.9c0.4-0.8,1-1.4,1.6-1.8c0.7-0.5,1.4-0.8,2.2-1c0.9-0.2,1.7-0.4,2.6-0.6c0.9-0.1,1.7-0.2,2.5-0.3
			c0.8-0.1,1.6-0.2,2.2-0.4c0.6-0.2,1.1-0.4,1.5-0.7c0.4-0.3,0.5-0.8,0.5-1.4c0-0.6-0.1-1.1-0.3-1.4c-0.2-0.4-0.5-0.7-0.8-0.8
			c-0.3-0.2-0.7-0.3-1.2-0.4c-0.4-0.1-0.9-0.1-1.4-0.1c-1.1,0-2,0.2-2.6,0.7s-1,1.3-1.1,2.4L178.9,479.4z M192,483.6
			c-0.2,0.2-0.5,0.4-0.9,0.5c-0.3,0.1-0.7,0.2-1.2,0.3c-0.4,0.1-0.8,0.1-1.3,0.2c-0.5,0.1-0.9,0.1-1.4,0.2c-0.4,0.1-0.9,0.2-1.3,0.3
			c-0.4,0.1-0.8,0.3-1.1,0.6c-0.3,0.2-0.5,0.5-0.7,0.8c-0.2,0.3-0.3,0.8-0.3,1.3c0,0.5,0.1,0.9,0.3,1.3c0.2,0.3,0.4,0.6,0.8,0.8
			c0.3,0.2,0.7,0.3,1.1,0.4s0.9,0.1,1.3,0.1c1.1,0,2-0.2,2.6-0.6c0.6-0.4,1.1-0.8,1.4-1.3c0.3-0.5,0.5-1.1,0.5-1.6
			c0.1-0.5,0.1-1,0.1-1.3V483.6z"/>
		<path id="path1219" d="M209.3,473v-6.2h-5.7v6.2h-3.4v3.8h3.4V489c0,1,0.2,1.9,0.5,2.5s0.8,1.1,1.4,1.5c0.6,0.3,1.3,0.6,2.1,0.7
			c0.8,0.1,1.6,0.2,2.5,0.2c0.6,0,1.1,0,1.7,0s1.1-0.1,1.6-0.2v-4.4c-0.3,0.1-0.5,0.1-0.8,0.1s-0.6,0-0.9,0c-1,0-1.6-0.2-1.9-0.5
			s-0.5-1-0.5-1.9v-10.2h4.2V473H209.3z"/>
		<path id="path1221" d="M230.1,481.1h-9.2c0-0.4,0.1-0.9,0.2-1.4c0.2-0.5,0.4-1,0.8-1.4c0.4-0.5,0.9-0.8,1.4-1.1
			c0.6-0.3,1.4-0.5,2.3-0.5c1.4,0,2.4,0.4,3.1,1.1C229.3,478.6,229.8,479.7,230.1,481.1z M220.8,484.7h14.9c0.1-1.6,0-3.1-0.4-4.6
			c-0.4-1.5-1-2.8-1.8-3.9c-0.8-1.1-1.9-2.1-3.2-2.7c-1.3-0.7-2.8-1-4.6-1c-1.6,0-3,0.3-4.3,0.8c-1.3,0.6-2.4,1.3-3.3,2.3
			c-0.9,1-1.7,2.1-2.2,3.4c-0.5,1.3-0.8,2.8-0.8,4.3c0,1.6,0.2,3.1,0.7,4.4c0.5,1.3,1.2,2.5,2.1,3.4c0.9,1,2,1.7,3.3,2.2
			c1.3,0.5,2.8,0.8,4.4,0.8c2.3,0,4.3-0.5,6-1.6c1.7-1.1,2.9-2.8,3.7-5.3h-5c-0.2,0.6-0.7,1.3-1.5,1.8c-0.8,0.6-1.8,0.8-3,0.8
			c-1.6,0-2.8-0.4-3.7-1.2S220.9,486.6,220.8,484.7L220.8,484.7z"/>
		<path id="path1223" d="M250.8,465.1v28.6H271v-5.3h-13.9v-23.3H250.8z"/>
		<path id="path1225" d="M273.7,479.4c0.1-1.3,0.4-2.4,1-3.3s1.3-1.6,2.2-2.1c0.9-0.5,1.9-0.9,3-1.1c1.1-0.2,2.3-0.4,3.4-0.4
			c1,0,2.1,0.1,3.2,0.2c1.1,0.1,2,0.4,2.9,0.8c0.9,0.4,1.6,1,2.2,1.8c0.6,0.7,0.8,1.7,0.8,3v10.8c0,0.9,0.1,1.8,0.2,2.7
			c0.1,0.9,0.3,1.5,0.6,1.9h-5.8c-0.1-0.3-0.2-0.6-0.3-1c-0.1-0.3-0.1-0.7-0.1-1c-0.9,0.9-2,1.6-3.2,2c-1.2,0.4-2.5,0.6-3.8,0.6
			c-1,0-1.9-0.1-2.8-0.4s-1.6-0.6-2.2-1.1c-0.6-0.5-1.1-1.1-1.5-1.9c-0.3-0.8-0.5-1.7-0.5-2.8c0-1.2,0.2-2.1,0.6-2.9
			c0.4-0.8,1-1.4,1.6-1.8c0.7-0.5,1.4-0.8,2.2-1c0.9-0.2,1.7-0.4,2.6-0.6c0.9-0.1,1.7-0.2,2.5-0.3c0.8-0.1,1.6-0.2,2.2-0.4
			c0.6-0.2,1.1-0.4,1.5-0.7c0.4-0.3,0.5-0.8,0.5-1.4c0-0.6-0.1-1.1-0.3-1.4c-0.2-0.4-0.5-0.7-0.8-0.8c-0.3-0.2-0.7-0.3-1.2-0.4
			c-0.4-0.1-0.9-0.1-1.4-0.1c-1.1,0-2,0.2-2.6,0.7c-0.6,0.5-1,1.3-1.1,2.4L273.7,479.4z M286.8,483.6c-0.2,0.2-0.5,0.4-0.9,0.5
			c-0.3,0.1-0.7,0.2-1.2,0.3c-0.4,0.1-0.8,0.1-1.3,0.2c-0.5,0.1-0.9,0.1-1.4,0.2c-0.4,0.1-0.9,0.2-1.3,0.3c-0.4,0.1-0.8,0.3-1.1,0.6
			c-0.3,0.2-0.5,0.5-0.7,0.8c-0.2,0.3-0.3,0.8-0.3,1.3c0,0.5,0.1,0.9,0.3,1.3c0.2,0.3,0.4,0.6,0.8,0.8c0.3,0.2,0.7,0.3,1.1,0.4
			s0.9,0.1,1.3,0.1c1.1,0,2-0.2,2.6-0.6c0.6-0.4,1.1-0.8,1.4-1.3c0.3-0.5,0.5-1.1,0.5-1.6c0.1-0.5,0.1-1,0.1-1.3V483.6z"/>
		<path id="path1227" d="M312.1,483.4c0,0.9-0.1,1.7-0.3,2.5c-0.2,0.8-0.5,1.5-0.9,2.1c-0.4,0.6-0.9,1.1-1.5,1.5
			c-0.6,0.3-1.3,0.5-2.2,0.5c-0.8,0-1.5-0.2-2.2-0.5c-0.6-0.4-1.1-0.9-1.5-1.5s-0.7-1.3-0.9-2.1c-0.2-0.8-0.3-1.6-0.3-2.5
			c0-0.9,0.1-1.7,0.3-2.5c0.2-0.8,0.5-1.5,0.9-2.1c0.4-0.6,0.9-1.1,1.5-1.4c0.6-0.4,1.3-0.6,2.2-0.6c0.9,0,1.6,0.2,2.2,0.6
			c0.6,0.3,1.1,0.8,1.5,1.4c0.4,0.6,0.7,1.3,0.9,2.1C312,481.6,312.1,482.5,312.1,483.4z M296.9,465.1v28.6h5.4V491h0.1
			c0.6,1.1,1.5,2,2.7,2.4s2.6,0.7,4.1,0.7c1,0,2.1-0.2,3.1-0.6c1-0.4,1.9-1.1,2.7-2c0.8-0.9,1.5-2,2-3.4c0.5-1.4,0.8-3,0.8-4.9
			c0-1.9-0.3-3.5-0.8-4.9c-0.5-1.4-1.2-2.5-2-3.4c-0.8-0.9-1.7-1.5-2.7-2c-1-0.4-2-0.6-3.1-0.6c-1.3,0-2.5,0.3-3.7,0.8
			c-1.2,0.5-2.1,1.3-2.8,2.3h-0.1v-10.4H296.9z"/>
		<path id="path1229" d="M325.8,487h-5.4c0.1,1.4,0.4,2.5,0.9,3.5c0.6,0.9,1.3,1.6,2.2,2.2c0.9,0.6,1.9,1,3.1,1.2s2.3,0.4,3.5,0.4
			c1.2,0,2.3-0.1,3.4-0.4c1.1-0.2,2.2-0.6,3-1.2s1.6-1.3,2.1-2.2c0.6-0.9,0.8-2.1,0.8-3.4c0-1-0.2-1.8-0.6-2.4
			c-0.4-0.7-0.9-1.2-1.5-1.6c-0.6-0.5-1.3-0.8-2.1-1.1c-0.8-0.3-1.6-0.5-2.4-0.7c-0.8-0.2-1.6-0.4-2.4-0.5c-0.8-0.2-1.5-0.3-2.1-0.5
			c-0.6-0.2-1.1-0.5-1.4-0.8c-0.4-0.3-0.6-0.7-0.6-1.2c0-0.4,0.1-0.8,0.3-1c0.2-0.3,0.5-0.5,0.8-0.6c0.3-0.1,0.7-0.2,1-0.2
			c0.4-0.1,0.7-0.1,1-0.1c1,0,1.9,0.2,2.6,0.6c0.7,0.4,1.2,1.1,1.2,2.2h5.4c-0.1-1.3-0.4-2.3-1-3.2c-0.5-0.9-1.2-1.5-2-2
			c-0.8-0.5-1.8-0.9-2.8-1.1c-1-0.2-2.1-0.3-3.2-0.3c-1.1,0-2.2,0.1-3.3,0.3c-1.1,0.2-2,0.5-2.9,1c-0.9,0.5-1.5,1.1-2.1,2
			c-0.5,0.9-0.8,1.9-0.8,3.3c0,0.9,0.2,1.7,0.6,2.3c0.4,0.6,0.9,1.1,1.5,1.6c0.6,0.4,1.3,0.7,2.1,1c0.8,0.2,1.6,0.5,2.4,0.6
			c2,0.4,3.6,0.9,4.7,1.3c1.1,0.4,1.7,1.1,1.7,1.9c0,0.5-0.1,0.9-0.4,1.3c-0.2,0.3-0.5,0.6-0.9,0.8c-0.3,0.2-0.7,0.3-1.2,0.4
			c-0.4,0.1-0.8,0.1-1.2,0.1c-0.6,0-1.1-0.1-1.6-0.2c-0.5-0.1-1-0.3-1.4-0.6c-0.4-0.3-0.7-0.7-1-1.1
			C325.9,488.1,325.8,487.6,325.8,487L325.8,487z"/>
	</g>
</g>
</svg>
